<?xml version="1.0" encoding="UTF-8" standalone="no"?>
<!-- Created with Inkscape (http://www.inkscape.org/) -->

<svg
   xmlns:dc="http://purl.org/dc/elements/1.1/"
   xmlns:cc="http://creativecommons.org/ns#"
   xmlns:rdf="http://www.w3.org/1999/02/22-rdf-syntax-ns#"
   xmlns:svg="http://www.w3.org/2000/svg"
   xmlns="http://www.w3.org/2000/svg"
   version="1.1"
   width="149"
   height="149"
   id="svg2"
   xml:space="preserve"><metadata
     id="metadata8"><rdf:RDF><cc:Work
         rdf:about=""><dc:format>image/svg+xml</dc:format><dc:type
           rdf:resource="http://purl.org/dc/dcmitype/StillImage" /><dc:title></dc:title></cc:Work></rdf:RDF></metadata><defs
     id="defs6"><clipPath
       id="clipPath16"><path
         d="M 0,356 272,356 272,0 0,0 0,356 z"
         id="path18" /></clipPath></defs><g
     transform="matrix(1.25,0,0,-1.25,-42.450905,437.64153)"
     id="g10"><g
       transform="matrix(2.2207047,0,0,2.2208622,40.243823,291.15505)"
       id="g86"
       style="fill:#2d2d2d"><path
         d="m 0,0 c 0,3.273 0.63,6.395 1.885,9.367 1.263,2.971 3.087,5.629 5.478,7.977 2.305,2.26 4.84,3.963 7.606,5.099 2.766,1.143 5.761,1.715 8.99,1.715 3.294,0 6.353,-0.576 9.161,-1.728 2.806,-1.151 5.377,-2.869 7.698,-5.151 2.391,-2.345 4.191,-4.972 5.395,-7.881 1.205,-2.904 1.805,-6.037 1.805,-9.398 0,-3.336 -0.514,-6.398 -1.543,-9.188 -1.037,-2.787 -2.588,-5.324 -4.657,-7.607 -2.39,-2.623 -5.089,-4.603 -8.104,-5.941 -3.017,-1.334 -6.286,-2 -9.818,-2 -6.762,0 -12.433,2.373 -17.02,7.119 C 2.291,-12.867 0,-6.996 0,0 m 4.845,-0.062 c 0,-5.729 1.857,-10.53 5.588,-14.405 3.72,-3.877 8.315,-5.81 13.786,-5.81 5.341,0 9.847,1.955 13.53,5.875 3.682,3.918 5.523,8.74 5.523,14.466 0,5.34 -1.894,9.944 -5.686,13.807 -3.785,3.865 -8.352,5.797 -13.69,5.797 -2.17,0 -4.267,-0.371 -6.283,-1.113 C 15.6,17.811 13.747,16.719 12.046,15.277 9.807,13.381 8.046,11.066 6.767,8.332 5.481,5.6 4.845,2.797 4.845,-0.062"
         id="path88"
         style="fill:#2d2d2d;fill-opacity:1;fill-rule:nonzero;stroke:none" /></g></g></svg>