<?xml version="1.0" encoding="UTF-8" standalone="no"?>
<!-- Created with Inkscape (http://www.inkscape.org/) -->

<svg
   xmlns:dc="http://purl.org/dc/elements/1.1/"
   xmlns:cc="http://creativecommons.org/ns#"
   xmlns:rdf="http://www.w3.org/1999/02/22-rdf-syntax-ns#"
   xmlns:svg="http://www.w3.org/2000/svg"
   xmlns="http://www.w3.org/2000/svg"
   version="1.1"
   width="260"
   height="186"
   id="svg2"
   xml:space="preserve"><metadata
     id="metadata8"><rdf:RDF><cc:Work
         rdf:about=""><dc:format>image/svg+xml</dc:format><dc:type
           rdf:resource="http://purl.org/dc/dcmitype/StillImage" /><dc:title></dc:title></cc:Work></rdf:RDF></metadata><defs
     id="defs6"><clipPath
       id="clipPath16"><path
         d="M 0,356 272,356 272,0 0,0 0,356 z"
         id="path18" /></clipPath></defs><g
     transform="matrix(1.25,0,0,-1.25,-42.616243,440.03117)"
     id="g10"><g
       transform="matrix(2.2207047,0,0,2.2208622,-166.65864,-339.29994)"
       id="g12"
       style="fill:#ffffff"><g
         clip-path="url(#clipPath16)"
         id="g14"
         style="fill:#ffffff"><g
           transform="translate(96.2041,250.2661)"
           id="g20"
           style="fill:#ffffff"><path
             d="m 0,0 0,-1.473 0.274,0 c 0.455,0 0.761,0.058 0.918,0.172 0.159,0.114 0.238,0.281 0.238,0.5 0,0.247 -0.093,0.443 -0.279,0.586 C 0.966,-0.071 0.658,0 0.228,0 L 0,0 z m 0,2.188 0,-1.211 0.239,0 c 0.267,0 0.465,0.055 0.594,0.168 0.13,0.112 0.194,0.264 0.194,0.457 0,0.179 -0.061,0.322 -0.184,0.427 C 0.72,2.135 0.533,2.188 0.282,2.188 L 0,2.188 z m -1.094,-4.704 0,5.746 0.904,0 C 0.334,3.23 0.717,3.196 0.96,3.129 1.304,3.038 1.577,2.868 1.781,2.621 1.984,2.374 2.086,2.082 2.086,1.746 2.086,1.527 2.04,1.329 1.947,1.15 1.854,0.972 1.704,0.805 1.496,0.648 1.845,0.484 2.101,0.279 2.262,0.033 2.423,-0.213 2.504,-0.504 2.504,-0.84 2.504,-1.163 2.421,-1.457 2.254,-1.723 2.087,-1.988 1.872,-2.187 1.608,-2.318 1.345,-2.45 0.981,-2.516 0.518,-2.516 l -1.612,0 z"
             id="path22"
             style="fill:#ffffff;fill-opacity:1;fill-rule:nonzero;stroke:none" /></g><g
           transform="translate(99.3838,252.0005)"
           id="g24"
           style="fill:#ffffff"><path
             d="m 0,0 0.914,0 0,-0.535 c 0.099,0.211 0.231,0.371 0.395,0.48 0.164,0.11 0.343,0.164 0.539,0.164 C 1.985,0.109 2.13,0.073 2.281,0 L 1.949,-0.918 c -0.125,0.063 -0.227,0.094 -0.308,0.094 -0.164,0 -0.303,-0.102 -0.416,-0.305 -0.114,-0.203 -0.17,-0.601 -0.17,-1.195 l 0.004,-0.207 0,-1.719 L 0,-4.25 0,0 z"
             id="path26"
             style="fill:#ffffff;fill-opacity:1;fill-rule:nonzero;stroke:none" /></g><g
           transform="translate(105.3838,250.4067)"
           id="g28"
           style="fill:#ffffff"><path
             d="m 0,0 c -0.07,0.237 -0.209,0.43 -0.417,0.578 -0.207,0.149 -0.448,0.223 -0.722,0.223 -0.297,0 -0.558,-0.083 -0.782,-0.25 C -2.063,0.446 -2.192,0.263 -2.313,0 L 0,0 z m 1.066,-0.84 -3.425,0 c 0.049,-0.302 0.181,-0.542 0.396,-0.721 0.215,-0.178 0.489,-0.267 0.822,-0.267 0.399,0 0.742,0.14 1.028,0.418 L 0.785,-1.832 C 0.562,-2.149 0.293,-2.385 -0.02,-2.537 c -0.312,-0.152 -0.683,-0.229 -1.113,-0.229 -0.667,0 -1.21,0.21 -1.629,0.631 -0.419,0.421 -0.629,0.948 -0.629,1.58 0,0.649 0.209,1.187 0.627,1.616 0.418,0.428 0.943,0.642 1.573,0.642 0.669,0 1.213,-0.214 1.632,-0.642 C 0.86,0.632 1.07,0.066 1.07,-0.637 L 1.066,-0.84 z"
             id="path30"
             style="fill:#ffffff;fill-opacity:1;fill-rule:nonzero;stroke:none" /></g><g
           transform="translate(109.3291,251.1255)"
           id="g32"
           style="fill:#ffffff"><path
             d="m 0,0 c -0.33,0 -0.604,-0.116 -0.821,-0.35 -0.218,-0.233 -0.327,-0.532 -0.327,-0.896 0,-0.367 0.111,-0.669 0.333,-0.906 0.221,-0.238 0.495,-0.356 0.819,-0.356 0.335,0 0.612,0.116 0.833,0.35 0.221,0.233 0.331,0.538 0.331,0.916 0,0.37 -0.11,0.669 -0.331,0.898 C 0.616,-0.114 0.338,0 0,0 m 1.121,0.875 1.067,0 0,-4.25 -1.067,0 0,0.449 C 0.913,-3.124 0.704,-3.267 0.495,-3.354 c -0.21,-0.086 -0.436,-0.13 -0.681,-0.13 -0.548,0 -1.024,0.213 -1.424,0.638 -0.401,0.426 -0.601,0.955 -0.601,1.588 0,0.656 0.193,1.195 0.581,1.613 0.388,0.419 0.859,0.629 1.413,0.629 0.255,0 0.494,-0.047 0.718,-0.144 0.224,-0.097 0.431,-0.241 0.62,-0.434 l 0,0.469 z"
             id="path34"
             style="fill:#ffffff;fill-opacity:1;fill-rule:nonzero;stroke:none" /></g><g
           transform="translate(112.6025,253.6411)"
           id="g36"
           style="fill:#ffffff"><path
             d="m 0,0 1.066,0 0,-3.393 1.571,1.752 1.339,0 -1.83,-2.037 2.049,-2.213 -1.324,0 -1.805,1.959 0,-1.959 L 0,-5.891 0,0 z"
             id="path38"
             style="fill:#ffffff;fill-opacity:1;fill-rule:nonzero;stroke:none" /></g><path
           d="m 117.118,252 1.066,0 0,-4.25 -1.066,0 0,4.25 z m 0.533,1.75 c 0.187,0 0.348,-0.067 0.482,-0.203 0.134,-0.135 0.2,-0.299 0.2,-0.492 0,-0.19 -0.066,-0.352 -0.198,-0.486 -0.133,-0.134 -0.291,-0.201 -0.476,-0.201 -0.189,0 -0.351,0.068 -0.485,0.205 -0.134,0.136 -0.2,0.302 -0.2,0.498 0,0.187 0.066,0.347 0.198,0.48 0.133,0.133 0.292,0.199 0.479,0.199"
           id="path40"
           style="fill:#ffffff;fill-opacity:1;fill-rule:nonzero;stroke:none" /><g
           transform="translate(119.1533,252.0005)"
           id="g42"
           style="fill:#ffffff"><path
             d="m 0,0 1.066,0 0,-0.436 c 0.243,0.205 0.461,0.346 0.658,0.426 0.196,0.079 0.397,0.119 0.602,0.119 0.422,0 0.779,-0.147 1.073,-0.441 0.247,-0.25 0.371,-0.62 0.371,-1.109 l 0,-2.809 -1.055,0 0,1.861 c 0,0.507 -0.023,0.844 -0.069,1.011 -0.044,0.166 -0.125,0.293 -0.237,0.38 -0.113,0.087 -0.253,0.131 -0.419,0.131 -0.216,0 -0.401,-0.072 -0.555,-0.217 C 1.28,-1.229 1.173,-1.428 1.113,-1.683 1.082,-1.815 1.066,-2.103 1.066,-2.545 l 0,-1.705 L 0,-4.25 0,0 z"
             id="path44"
             style="fill:#ffffff;fill-opacity:1;fill-rule:nonzero;stroke:none" /></g><g
           transform="translate(125.9893,251.1138)"
           id="g46"
           style="fill:#ffffff"><path
             d="m 0,0 c -0.336,0 -0.613,-0.112 -0.832,-0.338 -0.219,-0.225 -0.328,-0.509 -0.328,-0.849 0,-0.355 0.112,-0.645 0.336,-0.872 0.223,-0.226 0.505,-0.339 0.844,-0.339 0.331,0 0.603,0.11 0.818,0.332 0.215,0.221 0.322,0.511 0.322,0.871 0,0.354 -0.108,0.641 -0.324,0.863 C 0.62,-0.11 0.341,0 0,0 m 1.105,0.887 1.063,0 0,-3.641 c 0,-0.719 -0.145,-1.247 -0.434,-1.586 -0.387,-0.458 -0.972,-0.687 -1.754,-0.687 -0.417,0 -0.766,0.051 -1.05,0.156 -0.284,0.104 -0.524,0.257 -0.719,0.459 -0.195,0.202 -0.34,0.447 -0.434,0.736 l 1.176,0 c 0.105,-0.12 0.238,-0.21 0.402,-0.271 0.165,-0.062 0.359,-0.092 0.583,-0.092 0.286,0 0.516,0.044 0.691,0.133 0.175,0.089 0.298,0.203 0.369,0.343 0.071,0.141 0.107,0.383 0.107,0.727 C 0.918,-3.023 0.722,-3.158 0.516,-3.24 0.31,-3.322 0.077,-3.363 -0.184,-3.363 c -0.57,0 -1.051,0.206 -1.445,0.617 -0.393,0.411 -0.59,0.933 -0.59,1.562 0,0.675 0.208,1.216 0.625,1.625 0.378,0.371 0.828,0.555 1.352,0.555 0.245,0 0.475,-0.045 0.693,-0.135 0.218,-0.09 0.436,-0.237 0.654,-0.443 l 0,0.469 z"
             id="path48"
             style="fill:#ffffff;fill-opacity:1;fill-rule:nonzero;stroke:none" /></g><g
           transform="translate(131.5947,253.4966)"
           id="g50"
           style="fill:#ffffff"><path
             d="m 0,0 1.049,0 2.459,-3.781 0,3.781 1.094,0 0,-5.746 -1.052,0 -2.456,3.769 0,-3.769 L 0,-5.746 0,0 z"
             id="path52"
             style="fill:#ffffff;fill-opacity:1;fill-rule:nonzero;stroke:none" /></g><g
           transform="translate(140.584,250.4067)"
           id="g54"
           style="fill:#ffffff"><path
             d="m 0,0 c -0.07,0.237 -0.209,0.43 -0.418,0.578 -0.207,0.149 -0.447,0.223 -0.721,0.223 -0.297,0 -0.558,-0.083 -0.783,-0.25 C -2.063,0.446 -2.193,0.263 -2.313,0 L 0,0 z m 1.066,-0.84 -3.425,0 c 0.048,-0.302 0.181,-0.542 0.396,-0.721 0.215,-0.178 0.488,-0.267 0.822,-0.267 0.399,0 0.741,0.14 1.028,0.418 L 0.785,-1.832 C 0.561,-2.149 0.293,-2.385 -0.02,-2.537 c -0.312,-0.152 -0.683,-0.229 -1.113,-0.229 -0.668,0 -1.211,0.21 -1.63,0.631 -0.419,0.421 -0.629,0.948 -0.629,1.58 0,0.649 0.209,1.187 0.627,1.616 0.419,0.428 0.943,0.642 1.574,0.642 0.668,0 1.212,-0.214 1.632,-0.642 C 0.859,0.632 1.07,0.066 1.07,-0.637 L 1.066,-0.84 z"
             id="path56"
             style="fill:#ffffff;fill-opacity:1;fill-rule:nonzero;stroke:none" /></g><g
           transform="translate(142.043,252.0005)"
           id="g58"
           style="fill:#ffffff"><path
             d="M 0,0 1.043,0 1.898,-2.418 2.818,0 3.455,0 4.359,-2.391 5.215,0 6.266,0 4.715,-4.25 4.039,-4.25 3.133,-1.828 2.199,-4.25 1.531,-4.25 0,0 z"
             id="path60"
             style="fill:#ffffff;fill-opacity:1;fill-rule:nonzero;stroke:none" /></g><g
           transform="translate(156.5723,252.5591)"
           id="g62"
           style="fill:#ffffff"><path
             d="m 0,0 -0.771,-0.762 c -0.487,0.516 -1.055,0.774 -1.704,0.774 -0.566,0 -1.039,-0.188 -1.421,-0.563 -0.381,-0.375 -0.573,-0.831 -0.573,-1.367 0,-0.555 0.198,-1.024 0.594,-1.41 0.396,-0.386 0.885,-0.578 1.467,-0.578 0.377,0 0.697,0.079 0.955,0.238 0.26,0.159 0.469,0.407 0.629,0.746 l -1.664,0 0,1.027 2.89,0 0.008,-0.242 c 0,-0.503 -0.131,-0.979 -0.39,-1.429 -0.262,-0.451 -0.598,-0.794 -1.012,-1.032 -0.414,-0.237 -0.901,-0.355 -1.457,-0.355 -0.598,0 -1.129,0.13 -1.596,0.389 -0.469,0.258 -0.838,0.627 -1.109,1.107 -0.274,0.479 -0.408,0.996 -0.408,1.551 0,0.76 0.25,1.422 0.753,1.984 0.596,0.669 1.371,1.004 2.329,1.004 0.5,0 0.966,-0.093 1.402,-0.277 C -0.711,0.648 -0.352,0.38 0,0"
             id="path64"
             style="fill:#ffffff;fill-opacity:1;fill-rule:nonzero;stroke:none" /></g><g
           transform="translate(157.6191,252.0005)"
           id="g66"
           style="fill:#ffffff"><path
             d="m 0,0 0.914,0 0,-0.535 c 0.098,0.211 0.231,0.371 0.395,0.48 0.164,0.11 0.343,0.164 0.539,0.164 C 1.984,0.109 2.129,0.073 2.281,0 L 1.949,-0.918 c -0.125,0.063 -0.228,0.094 -0.308,0.094 -0.164,0 -0.303,-0.102 -0.416,-0.305 -0.114,-0.203 -0.17,-0.601 -0.17,-1.195 l 0.004,-0.207 0,-1.719 L 0,-4.25 0,0 z"
             id="path68"
             style="fill:#ffffff;fill-opacity:1;fill-rule:nonzero;stroke:none" /></g><g
           transform="translate(162.4414,251.106)"
           id="g70"
           style="fill:#ffffff"><path
             d="m 0,0 c -0.332,0 -0.607,-0.115 -0.828,-0.346 -0.221,-0.23 -0.33,-0.525 -0.33,-0.884 0,-0.371 0.109,-0.669 0.326,-0.899 0.219,-0.229 0.494,-0.344 0.828,-0.344 0.334,0 0.611,0.117 0.832,0.348 0.223,0.231 0.334,0.53 0.334,0.895 0,0.364 -0.109,0.661 -0.328,0.888 C 0.617,-0.114 0.338,0 0,0 M -0.018,1.004 C 0.383,1.004 0.76,0.903 1.113,0.703 1.465,0.503 1.74,0.23 1.939,-0.113 2.137,-0.457 2.236,-0.828 2.236,-1.227 2.236,-1.628 2.137,-2.003 1.937,-2.352 1.738,-2.7 1.467,-2.974 1.123,-3.17 0.779,-3.366 0.4,-3.465 -0.014,-3.465 c -0.609,0 -1.131,0.217 -1.56,0.651 -0.432,0.433 -0.647,0.96 -0.647,1.58 0,0.664 0.242,1.217 0.731,1.66 0.426,0.386 0.918,0.578 1.472,0.578"
             id="path72"
             style="fill:#ffffff;fill-opacity:1;fill-rule:nonzero;stroke:none" /></g><g
           transform="translate(165.5449,252.0005)"
           id="g74"
           style="fill:#ffffff"><path
             d="m 0,0 1.078,0 0,-2.047 c 0,-0.398 0.027,-0.675 0.082,-0.83 0.055,-0.155 0.143,-0.275 0.264,-0.361 0.121,-0.086 0.271,-0.129 0.449,-0.129 0.178,0 0.328,0.042 0.451,0.127 0.125,0.085 0.217,0.209 0.278,0.373 0.043,0.122 0.066,0.384 0.066,0.785 l 0,2.082 1.066,0 0,-1.801 c 0,-0.742 -0.058,-1.25 -0.175,-1.523 C 3.414,-3.657 3.203,-3.913 2.926,-4.092 2.646,-4.271 2.293,-4.359 1.863,-4.359 1.396,-4.359 1.02,-4.255 0.732,-4.047 0.443,-3.839 0.242,-3.548 0.125,-3.176 0.041,-2.918 0,-2.449 0,-1.77 L 0,0 z"
             id="path76"
             style="fill:#ffffff;fill-opacity:1;fill-rule:nonzero;stroke:none" /></g><g
           transform="translate(170.3496,252.0005)"
           id="g78"
           style="fill:#ffffff"><path
             d="m 0,0 1.066,0 0,-0.436 c 0.243,0.205 0.461,0.346 0.657,0.426 0.197,0.079 0.398,0.119 0.603,0.119 0.422,0 0.779,-0.147 1.072,-0.441 0.248,-0.25 0.372,-0.62 0.372,-1.109 l 0,-2.809 -1.055,0 0,1.861 c 0,0.507 -0.024,0.844 -0.069,1.011 -0.044,0.166 -0.125,0.293 -0.238,0.38 -0.113,0.087 -0.252,0.131 -0.418,0.131 -0.217,0 -0.402,-0.072 -0.556,-0.217 C 1.279,-1.229 1.172,-1.428 1.113,-1.683 1.082,-1.815 1.066,-2.103 1.066,-2.545 l 0,-1.705 L 0,-4.25 0,0 z"
             id="path80"
             style="fill:#ffffff;fill-opacity:1;fill-rule:nonzero;stroke:none" /></g><g
           transform="translate(177.166,251.1255)"
           id="g82"
           style="fill:#ffffff"><path
             d="m 0,0 c -0.33,0 -0.604,-0.116 -0.822,-0.35 -0.217,-0.233 -0.326,-0.532 -0.326,-0.896 0,-0.367 0.111,-0.669 0.332,-0.906 0.222,-0.238 0.496,-0.356 0.82,-0.356 0.334,0 0.611,0.116 0.832,0.35 0.221,0.233 0.332,0.538 0.332,0.916 0,0.37 -0.111,0.669 -0.332,0.898 C 0.615,-0.114 0.338,0 0,0 m 1.121,2.516 1.067,0 0,-5.891 -1.067,0 0,0.449 C 0.912,-3.124 0.703,-3.267 0.494,-3.354 c -0.209,-0.086 -0.435,-0.13 -0.68,-0.13 -0.548,0 -1.025,0.213 -1.425,0.638 -0.401,0.426 -0.6,0.955 -0.6,1.588 0,0.656 0.193,1.195 0.58,1.613 0.389,0.419 0.86,0.629 1.414,0.629 C 0.037,0.984 0.277,0.937 0.5,0.84 0.725,0.743 0.932,0.599 1.121,0.406 l 0,2.11 z"
             id="path84"
             style="fill:#ffffff;fill-opacity:1;fill-rule:nonzero;stroke:none" /></g><g
           transform="translate(92.2012,285.3276)"
           id="g86"
           style="fill:#ffffff"><path
             d="m 0,0 c 0,3.273 0.63,6.395 1.885,9.367 1.263,2.971 3.087,5.629 5.478,7.977 2.305,2.26 4.84,3.963 7.606,5.099 2.766,1.143 5.761,1.715 8.99,1.715 3.294,0 6.353,-0.576 9.161,-1.728 2.806,-1.151 5.377,-2.869 7.698,-5.151 2.391,-2.345 4.191,-4.972 5.395,-7.881 1.205,-2.904 1.805,-6.037 1.805,-9.398 0,-3.336 -0.514,-6.398 -1.543,-9.188 -1.037,-2.787 -2.588,-5.324 -4.657,-7.607 -2.39,-2.623 -5.089,-4.603 -8.104,-5.941 -3.017,-1.334 -6.286,-2 -9.818,-2 -6.762,0 -12.433,2.373 -17.02,7.119 C 2.291,-12.867 0,-6.996 0,0 m 4.845,-0.062 c 0,-5.729 1.857,-10.53 5.588,-14.405 3.72,-3.877 8.315,-5.81 13.786,-5.81 5.341,0 9.847,1.955 13.53,5.875 3.682,3.918 5.523,8.74 5.523,14.466 0,5.34 -1.894,9.944 -5.686,13.807 -3.785,3.865 -8.352,5.797 -13.69,5.797 -2.17,0 -4.267,-0.371 -6.283,-1.113 C 15.6,17.811 13.747,16.719 12.046,15.277 9.807,13.381 8.046,11.066 6.767,8.332 5.481,5.6 4.845,2.797 4.845,-0.062"
             id="path88"
             style="fill:#ffffff;fill-opacity:1;fill-rule:nonzero;stroke:none" /></g><g
           transform="translate(158.5107,290.3354)"
           id="g90"
           style="fill:#ffffff"><path
             d="m 0,0 c 2.224,2.422 4.928,3.635 8.104,3.635 3.169,0 5.893,-1.164 8.165,-3.483 2.275,-2.32 3.418,-5.156 3.418,-8.513 0,-3.539 -1.146,-6.51 -3.431,-8.914 -2.281,-2.401 -5.046,-3.602 -8.294,-3.602 -2.97,0 -5.599,1.195 -7.881,3.588 -2.282,2.394 -3.424,5.205 -3.424,8.434 0,3.486 1.114,6.435 3.343,8.855 m 1.759,-23.148 c 1.861,-0.887 3.909,-1.332 6.151,-1.332 4.549,0 8.322,1.529 11.329,4.582 3.006,3.05 4.513,6.843 4.513,11.371 0,4.384 -1.469,8.109 -4.416,11.17 C 16.391,5.705 12.796,7.236 8.543,7.236 6.138,7.236 3.963,6.77 2.021,5.832 0.077,4.9 -1.71,3.449 -3.343,1.488 l 0,2.254 0,10.143 c -0.461,-0.33 -0.946,-0.614 -1.388,-0.989 -0.892,-0.753 -1.687,-1.591 -2.435,-2.474 l 0,-28.166 c 0.242,-0.277 0.468,-0.561 0.726,-0.828 0.977,-1.016 2.008,-1.905 3.097,-2.668 l 0,2.123 c 1.544,-1.797 3.239,-3.139 5.102,-4.031"
             id="path92"
             style="fill:#ffffff;fill-opacity:1;fill-rule:nonzero;stroke:none" /></g><g
           transform="translate(146.0078,292.8608)"
           id="g94"
           style="fill:#ffffff"><path
             d="m 0,0 c 0.887,1.043 2.361,1.656 4.417,1.844 l 0,2.209 c 0,0 -1.499,0.816 -3.798,-0.11 C -0.358,3.508 -0.925,2.977 -1.568,2.076 l 0,1.957 C -2.655,3.877 -3.688,3.58 -4.652,3.107 l 0,-22.308 c 1.047,-0.531 2.159,-0.848 3.316,-0.986 l 0,15.097 c 0,2.35 0.444,4.047 1.336,5.09"
             id="path96"
             style="fill:#ffffff;fill-opacity:1;fill-rule:nonzero;stroke:none" /></g></g></g></g></svg>